<svg id="Layer_1" data-name="Layer 1" xmlns="http://www.w3.org/2000/svg" viewBox="0 0 597.6 217.06"><defs><style>.cls-1{font-size:66.44px;font-family:ArtificTrial-Bold, Artific Trial;font-weight:700;}.cls-2,.cls-4,.cls-5{fill:none;stroke:#000;stroke-miterlimit:10;}.cls-2{stroke-width:1.25px;}.cls-3{fill:#fdbc1b;}.cls-4{stroke-width:0.59px;}.cls-5{stroke-width:0.57px;}</style></defs><path d="M242.76,116.69l18-47.7h10.9l17.8,47.7H277.84l-3.06-8.7H256.84l-3.12,8.7ZM260.1,99h11.56l-5.72-16.34Z"/><path d="M307.27,117.35c-9.63,0-15.94-4.38-16.14-12.62h9.56c.47,4.25,3,5.38,6.51,5.38s6.18-1.39,6.18-3.72-1.19-3.39-4.65-4l-6.18-1.13c-6.57-1.27-10.49-4.52-10.49-9.64,0-6.58,5.58-11.09,14.68-11.09,6.38,0,10.83,2.12,13.75,5.64a10.56,10.56,0,0,1,2.19,6.45h-9.36c-.07-4-3.13-5.18-6.51-5.18-2.73,0-5.12,1.06-5.12,3.39s1.66,3.65,4.85,4.18l6,1.06c7.24,1.27,10.36,4.72,10.36,9.24C323,112.77,317.37,117.35,307.27,117.35Z"/><path d="M340,68.85V81.21h9.3v8.7H340v15.68c0,1.86.66,2.33,2.19,2.33h7.11v8.7l-12.56.07c-4.25,0-6.51-2.26-6.51-6.45V89.91h-6.38v-8.7h6.38V68.85Z"/><path d="M352.45,116.69V81.21h9.77v6.11c1.72-4.71,4.91-6.11,7.84-6.11h4.12V91.44H367.4a4.88,4.88,0,0,0-5.18,5v20.2Z"/><path d="M374.64,99c0-10.36,7.71-18.4,18-18.4s18,8,18,18.4-7.71,18.4-18,18.4S374.64,109.25,374.64,99Zm26.18,0c0-6.38-3.66-9.83-8.17-9.83s-8.24,3.45-8.24,9.83,3.85,9.83,8.24,9.83S400.82,105.26,400.82,99Z"/><path d="M425.2,94.35c0-13.08,9.5-22.89,22.46-22.89,7.47,0,13.45,3,17.09,7.53a20.75,20.75,0,0,1,3.83,8.76h-9.69a9.52,9.52,0,0,0-5.74-6.48,14.59,14.59,0,0,0-5.74-.93c-7.09,0-12.83,4.76-12.83,14.26,0,8.58,5.37,14.13,13.88,14.13,7.78,0,11.54-4.2,11.54-9.75v-.31H448V91.33h21.29c-.06,5.86-.5,10.12-1.3,12.71a19,19,0,0,1-3.7,6.91c-3.39,4-9.19,6.66-16.29,6.66C435.13,117.61,425.2,108,425.2,94.35Z"/><path d="M492.45,83.74h9.08v33h-9.08v-4.14a7.5,7.5,0,0,1-.74,1.12c-1.78,2.4-4.56,3.64-8.33,3.64-8.2,0-10.92-4.88-10.92-15.18V83.74h9.07V102c0,5.25,1.92,7.35,5.43,7.35s5.49-2.1,5.49-7.35Z"/><path d="M505,116.69V83.74h9.07v5.67c1.6-4.38,4.57-5.67,7.28-5.67h3.83v9.5h-6.3a4.53,4.53,0,0,0-4.81,4.69v18.76Z"/><path d="M547.49,83.74h9.07v33h-9.07v-4.14a7.5,7.5,0,0,1-.74,1.12c-1.79,2.4-4.56,3.64-8.33,3.64-8.2,0-10.92-4.88-10.92-15.18V83.74h9.07V102c0,5.25,1.91,7.35,5.43,7.35s5.49-2.1,5.49-7.35Z"/><path d="M560.32,83.68h9.08v36c0,7.16-3.21,10.24-9.57,10.24l-8.14-.06v-7.9h6.48c1.41,0,2.15-.74,2.15-2.28Zm.07-11.91h9.07v7.59h-9.07Z"/><path d="M573.34,71.77h9.14v7.59h-9.14Zm9.14,44.92h-9.14V83.74h9.14Z"/><text class="cls-1" transform="translate(583.71 116.69)"> </text><path d="M240.45,151.2V136.77h2V151.2Zm1.29,0v-1.79h4a5.55,5.55,0,0,0,2.81-.69,4.91,4.91,0,0,0,1.88-1.93,5.78,5.78,0,0,0,.68-2.83,5.59,5.59,0,0,0-.69-2.8,4.91,4.91,0,0,0-1.89-1.92,5.49,5.49,0,0,0-2.79-.68h-4v-1.79h4a7.78,7.78,0,0,1,2.92.54,7.07,7.07,0,0,1,2.33,1.52,7.17,7.17,0,0,1,1.54,2.28,7.74,7.74,0,0,1,0,5.73,7.12,7.12,0,0,1-1.53,2.3,6.92,6.92,0,0,1-2.32,1.52,7.71,7.71,0,0,1-2.9.54Z"/><path d="M260,151.2V136.77H262V151.2Z"/><path d="M274.24,151.2l-5.78-14.43h2.12L275.35,149h-.77l4.8-12.21h2.1l-5.82,14.43Z"/><path d="M288,151.2V136.77h2V151.2Z"/><path d="M297.52,151.2V136.77h1.37l.58,2.26V151.2Zm10,0-8.86-11.83.25-2.6,8.88,11.81Zm0,0-.58-2.14V136.77h1.95V151.2Z"/><path d="M316.44,151.2V136.77h2V151.2Zm1.33-12.64v-1.79h8.17v1.79Zm0,6.11V143h7.59v1.7Zm0,6.53v-1.79h8.28v1.79Z"/><path d="M339.69,151.2l5.91-14.43H347l5.89,14.43h-2.12L345.93,139h.73l-4.89,12.21Zm2.81-3.26v-1.71h7.59v1.71Z"/><path d="M362.84,151.41a6.19,6.19,0,0,1-2.91-.63,6.51,6.51,0,0,1-2.15-1.8l1.33-1.34a4.9,4.9,0,0,0,1.58,1.45,4.54,4.54,0,0,0,2.21.49A3.5,3.5,0,0,0,365,149a1.81,1.81,0,0,0,.78-1.54,2.12,2.12,0,0,0-.38-1.31,2.71,2.71,0,0,0-1-.82,11.85,11.85,0,0,0-1.39-.59c-.5-.17-1-.36-1.5-.56a6.72,6.72,0,0,1-1.37-.75,3.39,3.39,0,0,1-1-1.17,4,4,0,0,1-.38-1.83,3.62,3.62,0,0,1,.59-2.09,3.86,3.86,0,0,1,1.62-1.33,5.59,5.59,0,0,1,2.32-.47,5.67,5.67,0,0,1,2.54.55,5.19,5.19,0,0,1,1.83,1.45l-1.33,1.33a4.62,4.62,0,0,0-1.38-1.13,3.73,3.73,0,0,0-1.7-.37,3,3,0,0,0-1.85.51,1.66,1.66,0,0,0-.69,1.42,1.73,1.73,0,0,0,.39,1.18,3.08,3.08,0,0,0,1,.76,9.89,9.89,0,0,0,1.38.57c.51.17,1,.36,1.51.57a6.19,6.19,0,0,1,1.37.79,3.54,3.54,0,0,1,1,1.24,4.15,4.15,0,0,1,.38,1.9,3.66,3.66,0,0,1-1.32,3A5.46,5.46,0,0,1,362.84,151.41Z"/><path d="M372.76,138.56v-1.79h11.75v1.79Zm4.91,12.64v-14h1.95v14Z"/><path d="M391,151.2V136.77h2V151.2Zm1.31-6.28v-1.64h3.91a2.76,2.76,0,0,0,2-.65,2.27,2.27,0,0,0,.69-1.74,2.37,2.37,0,0,0-.68-1.73,2.6,2.6,0,0,0-1.94-.69h-3.94v-1.7h4a5,5,0,0,1,2.39.53,3.85,3.85,0,0,1,1.57,1.44,4,4,0,0,1,.55,2.1,4.07,4.07,0,0,1-.55,2.15,3.73,3.73,0,0,1-1.57,1.42,5.29,5.29,0,0,1-2.39.51Zm7,6.28-5.24-6.47,1.85-.64,5.87,7.11Z"/><path d="M414.31,151.41a7.14,7.14,0,0,1-5.2-2.17,7.35,7.35,0,0,1-1.55-2.39,7.59,7.59,0,0,1,1.54-8.15,7.09,7.09,0,0,1,2.31-1.58,7.58,7.58,0,0,1,5.72,0,7.09,7.09,0,0,1,2.31,1.58,7.29,7.29,0,0,1,1.56,2.37,7.63,7.63,0,0,1-1.55,8.18,7,7,0,0,1-2.3,1.59A7.1,7.1,0,0,1,414.31,151.41Zm0-1.87a5.1,5.1,0,0,0,2.73-.72,5.22,5.22,0,0,0,1.86-2,6.33,6.33,0,0,0,.29-5.09,5.4,5.4,0,0,0-1.1-1.76,4.9,4.9,0,0,0-1.66-1.15,5.41,5.41,0,0,0-2.12-.41,5.2,5.2,0,0,0-2.72.71,5,5,0,0,0-1.85,2A6,6,0,0,0,409,144a6.27,6.27,0,0,0,.38,2.24,5.36,5.36,0,0,0,1.08,1.77,5,5,0,0,0,1.67,1.15A5.2,5.2,0,0,0,414.27,149.54Z"/><path d="M436.87,151.2V136.77h2V151.2Z"/><path d="M446.4,151.2V136.77h1.37l.58,2.26V151.2Zm10,0-8.86-11.83.25-2.6,8.88,11.81Zm0,0-.58-2.14V136.77h1.95V151.2Z"/><path d="M469,151.41a6.25,6.25,0,0,1-2.91-.63A6.48,6.48,0,0,1,464,149l1.33-1.34a4.9,4.9,0,0,0,1.58,1.45,4.51,4.51,0,0,0,2.21.49,3.5,3.5,0,0,0,2.07-.56,1.83,1.83,0,0,0,.78-1.54,2.12,2.12,0,0,0-.38-1.31,2.75,2.75,0,0,0-1-.82,11,11,0,0,0-1.38-.59c-.5-.17-1-.36-1.5-.56a6.23,6.23,0,0,1-1.37-.75,3.29,3.29,0,0,1-1-1.17,3.88,3.88,0,0,1-.38-1.83,3.55,3.55,0,0,1,.59-2.09,3.74,3.74,0,0,1,1.62-1.33,5.59,5.59,0,0,1,2.32-.47,5.67,5.67,0,0,1,2.54.55,5.19,5.19,0,0,1,1.83,1.45l-1.33,1.33a4.53,4.53,0,0,0-1.39-1.13,3.66,3.66,0,0,0-1.69-.37,3,3,0,0,0-1.85.51,1.66,1.66,0,0,0-.69,1.42,1.73,1.73,0,0,0,.39,1.18,3.15,3.15,0,0,0,1,.76,10.57,10.57,0,0,0,1.39.57c.5.17,1,.36,1.5.57a6.26,6.26,0,0,1,1.38.79,3.65,3.65,0,0,1,1,1.24,4.29,4.29,0,0,1,.38,1.9,3.66,3.66,0,0,1-1.32,3A5.47,5.47,0,0,1,469,151.41Z"/><path d="M480.71,151.2V136.77h2V151.2Z"/><path d="M496.77,151.41a7.09,7.09,0,0,1-5.15-2.16,7.57,7.57,0,0,1,0-10.55,7,7,0,0,1,2.34-1.58,7.56,7.56,0,0,1,2.92-.56,7.46,7.46,0,0,1,3.18.67,6.52,6.52,0,0,1,2.44,1.91l-1.36,1.35a4.51,4.51,0,0,0-1.81-1.53,5.67,5.67,0,0,0-2.45-.53,5.5,5.5,0,0,0-2.8.71,4.92,4.92,0,0,0-1.89,2,6,6,0,0,0-.68,2.87,5.86,5.86,0,0,0,.69,2.89,5,5,0,0,0,4.51,2.67,5.55,5.55,0,0,0,2.63-.59,4,4,0,0,0,1.72-1.71,5.89,5.89,0,0,0,.6-2.78l1.19.85h-6.24v-1.78h7.07v.29a9,9,0,0,1-.88,4.21,6,6,0,0,1-2.46,2.55A7.46,7.46,0,0,1,496.77,151.41Z"/><path d="M510.47,151.2V136.77h2V151.2Zm1.33-6.57v-1.79h8.47v1.79Zm8,6.57V136.77h2V151.2Z"/><path d="M528.21,138.56v-1.79H540v1.79Zm4.91,12.64v-14h2v14Z"/><line class="cls-2" x1="241.07" y1="127.46" x2="536.88" y2="127.46"/><path class="cls-3" d="M217.06,108.53A108.53,108.53,0,1,1,108.53,0,108.53,108.53,0,0,1,217.06,108.53"/><path class="cls-4" d="M201.92,54.33l-.2.11L167.84,74A69.32,69.32,0,0,0,143.25,49.5l19.83-34.12.2.12A109,109,0,0,1,201.8,54.12Z"/><path class="cls-4" d="M162.15,202.48l-.19.11a107.58,107.58,0,0,1-52.81,14.17h-.24V178.1A68.49,68.49,0,0,0,142.77,169Z"/><path class="cls-4" d="M201.9,163l-.12.2a108.85,108.85,0,0,1-38.69,38.7l-.2.13-.12-.21-19.26-33.32a69.13,69.13,0,0,0,24.65-24.9Z"/><path class="cls-4" d="M216.59,108.65v.23a108.31,108.31,0,0,1-3.79,27.68,106.71,106.71,0,0,1-10.36,25l-.11.21-.21-.12-33.53-19.28c.08-.13.15-.27.22-.4a68.45,68.45,0,0,0,8.6-32.86c0-.16,0-.31,0-.46Z"/><path class="cls-5" d="M213.4,80a104.92,104.92,0,0,0-10.07-24.34l-.11-.2-33.11,19.1-1.57.91.12.19a63.75,63.75,0,0,1,3.23,6.59,64.54,64.54,0,0,1,5.1,24.72v.22h40.07v-.22A105.07,105.07,0,0,0,213.4,80Z"/><path class="cls-4" d="M162.33,15,142.51,49.08a68.5,68.5,0,0,0-33.6-9V.56h.24a107.47,107.47,0,0,1,53,14.26Z"/><path class="cls-4" d="M48.59,74.59a68.72,68.72,0,0,0-9.22,33.71H.39v-.23A107.4,107.4,0,0,1,14.58,55.15l.12-.2Z"/><path class="cls-4" d="M73.78,49.36A69.28,69.28,0,0,0,49,73.86L15.13,54.21l.11-.21A109,109,0,0,1,54,15.35l.19-.12Z"/><path class="cls-4" d="M48.27,143,14.71,162.4l-.11-.2A107.4,107.4,0,0,1,.39,109.39v-.23h39A68.59,68.59,0,0,0,48.27,143Z"/><path class="cls-4" d="M73.45,168.62,54.19,202.11,54,202a109,109,0,0,1-38.72-38.66l-.12-.19,33.55-19.38A69.32,69.32,0,0,0,73.45,168.62Z"/><path class="cls-4" d="M108.06.56V40.07a68.49,68.49,0,0,0-33.54,8.87L54.9,14.8l.21-.12A107.23,107.23,0,0,1,107.83.57Z"/><path class="cls-4" d="M108.06,178.1v38.66h-.23A108.43,108.43,0,0,1,80.14,213a107.32,107.32,0,0,1-25-10.34l-.2-.12L74.2,169.06A68.57,68.57,0,0,0,108.06,178.1Z"/><path d="M139.94,15.84a.54.54,0,0,0-.42-.16l-6.41.44a.56.56,0,0,0-.38.19.53.53,0,0,0-.13.4.55.55,0,0,0,.18.37.53.53,0,0,0,.4.13l4.81-.33L127.18,27.7l-2.6-2.6a.51.51,0,0,0-.39-.16.55.55,0,0,0-.54.54.51.51,0,0,0,.16.39l2.6,2.6-4.3,4.3a.55.55,0,0,0-.16.38.55.55,0,0,0,.94.39l4.29-4.3,2.6,2.6a.56.56,0,0,0,.78,0,.55.55,0,0,0,0-.77L128,28.47l11-11v.15l-.34,5a.55.55,0,0,0,.51.58h0a.55.55,0,0,0,.54-.51l.44-6.41a.54.54,0,0,0-.16-.43"/><polygon points="25.69 139.59 26.01 139.72 25.68 139.58 25.69 139.59"/><path d="M35.66,128.54a5,5,0,0,0,.66-2.24,5.58,5.58,0,0,0-.36-2.21,4.63,4.63,0,0,0-2.85-2.82,4.48,4.48,0,0,0-2.54,0A5.2,5.2,0,0,0,27.9,123a6.43,6.43,0,0,0-1.35,3.11l-1.45,9.56-1.44-9.56A6.43,6.43,0,0,0,22.31,123a5.2,5.2,0,0,0-2.67-1.78,4.48,4.48,0,0,0-2.54,0,4.63,4.63,0,0,0-2.85,2.82,5.58,5.58,0,0,0-.36,2.21,4.83,4.83,0,0,0,.66,2.24.55.55,0,0,0,.75.2.59.59,0,0,0,.25-.33.52.52,0,0,0-.06-.42,4.13,4.13,0,0,1-.22-3.51,3.59,3.59,0,0,1,2.16-2.17,3.39,3.39,0,0,1,1.92,0,4.77,4.77,0,0,1,3.23,4l2,13.14s0,.05,0,.08l0,.06v0h0v0h0a.44.44,0,0,0,.08.11h0l0,0,0,0h0l0,0,0,0H25l.08,0h.25l.07,0h.06l0,0,0,0a.44.44,0,0,0,.08-.11h0v0h0v0h0v0h0l0-.06a.64.64,0,0,0,0-.07l2-13.14a4.77,4.77,0,0,1,3.23-4,3.39,3.39,0,0,1,1.92,0,3.59,3.59,0,0,1,2.16,2.17,4.13,4.13,0,0,1-.22,3.51.52.52,0,0,0-.06.42.59.59,0,0,0,.25.33.55.55,0,0,0,.75-.2"/><path d="M202,142.88a2.45,2.45,0,0,1-.84-.28l-.53-.29.44-.41c.16-.14.3-.28.43-.41a7.61,7.61,0,0,0,2.38-4.42,2.49,2.49,0,0,0-1.1-2.5,1.78,1.78,0,0,0-1.78-.06,3.31,3.31,0,0,0-1.29,1.64l-.93,2.12.09-2.31c.09-2,.19-5,.15-7.73a39.72,39.72,0,0,0-.26-4.61c-.18-1.2-.43-2.34-1.21-2.53s-2.11.14-3.62,1.12c-.26.17-.53.35-.79.55l-.52.39-.16-.63c0-.06,0-.11,0-.16-.08-.27-.32-1.12-1-1.27-.92-.23-2.1.14-3.62,1.12-.31.2-.61.42-.93.65l-.54.41-.14-.68a1.35,1.35,0,0,0-.2-.59,2.47,2.47,0,0,0-2.54-1.2,3.84,3.84,0,0,0-1.39.45.55.55,0,0,0-.21.75.54.54,0,0,0,.75.19,3,3,0,0,1,1-.3,1.37,1.37,0,0,1,1.44.63l0,0,0,.06a18.09,18.09,0,0,1,.24,3.19c0,1.48,0,3.4,0,5.73-.06,4-.22,7.74-.22,7.79a.55.55,0,0,0,.15.38.55.55,0,0,0,.38.18h0a.54.54,0,0,0,.54-.53s.16-4,.23-8.09c0-2.4,0-4.36,0-5.83,0-.21,0-.4,0-.58v-.23l.2-.14,0,0a15.82,15.82,0,0,1,1.76-1.33,5.27,5.27,0,0,1,2.43-1h.31l.12.29a12.23,12.23,0,0,1,.45,3.07c.1,1.53.12,3.51.09,5.88-.06,4-.31,7.93-.31,8a.51.51,0,0,0,.14.39.54.54,0,0,0,.37.19h0a.55.55,0,0,0,.54-.51s.28-4.38.32-8.73c0-2.47,0-4.49-.15-6l0-.22.17-.15a15.68,15.68,0,0,1,1.61-1.19,5.16,5.16,0,0,1,2.41-1h.31l.11.29a8.42,8.42,0,0,1,.39,2.12c.11,1.13.17,2.62.18,4.42,0,3.32-.15,6.95-.25,8.81a6.61,6.61,0,0,0,1.1,4l.24.37-.36.23a18.41,18.41,0,0,1-4.39,2.09.54.54,0,0,0,.18,1.06.5.5,0,0,0,.17,0,20,20,0,0,0,4.88-2.37l.27-.19.25.2a3.71,3.71,0,0,0,1.82.81h.08a.54.54,0,0,0,.43-.88.52.52,0,0,0-.36-.21m-2.35-1.13.14-1.2c.05-.46.15-1.17.3-1.91a10.77,10.77,0,0,1,.65-2.12,2.3,2.3,0,0,1,.78-1.06.81.81,0,0,1,.29-.07.93.93,0,0,1,.44.14,1.4,1.4,0,0,1,.53,1.45,6.58,6.58,0,0,1-2.06,3.74l-.2.2Z"/><path d="M90.21,198.9l-.33-.09V185.65l.34-.08a9.38,9.38,0,0,0,4.41-2.29.59.59,0,0,0,.15-.4.57.57,0,0,0-.18-.38.54.54,0,0,0-.39-.14.5.5,0,0,0-.37.17,7.75,7.75,0,0,1-3.1,1.75,16.91,16.91,0,0,1-9.63,0A7.57,7.57,0,0,1,78,182.53a.52.52,0,0,0-.39-.17.57.57,0,0,0-.39.14.56.56,0,0,0-.17.38.54.54,0,0,0,.15.4,9.27,9.27,0,0,0,4.42,2.29l.32.08v13.16l-.32.09a9.18,9.18,0,0,0-4.42,2.29.51.51,0,0,0-.15.39.56.56,0,0,0,.17.38.58.58,0,0,0,.38.15.56.56,0,0,0,.4-.17,7.35,7.35,0,0,1,3.09-1.75,16.68,16.68,0,0,1,9.63,0,7.52,7.52,0,0,1,3.1,1.75.54.54,0,0,0,.76,0,.57.57,0,0,0,.18-.38.54.54,0,0,0-.15-.39,9.28,9.28,0,0,0-4.42-2.29m-1.42-.3-.49-.06a19,19,0,0,0-4.76,0l-.48.06V185.86l.49.07a18.88,18.88,0,0,0,4.75,0l.49-.07Z"/><path d="M55.8,160.87a5.19,5.19,0,0,0-3.19,1A11.32,11.32,0,0,0,50.55,164c-1.16,1.39-2.24,2.71-4.41,2.71s-3.24-1.32-4.4-2.71a11.7,11.7,0,0,0-2.07-2.09,5.18,5.18,0,0,0-3.18-1,.55.55,0,1,0,0,1.09c2.16,0,3.24,1.31,4.4,2.7a11.42,11.42,0,0,0,2.07,2.1l.09.06.57.4-.62.34a6.73,6.73,0,0,0-1.56,1.16,6.65,6.65,0,1,0,9.4,0,6.53,6.53,0,0,0-1.56-1.16l-.62-.34.58-.4.09-.06a11.37,11.37,0,0,0,2.06-2.1c1.16-1.39,2.25-2.7,4.41-2.7a.55.55,0,1,0,0-1.09m-4.11,12.55a5.55,5.55,0,1,1-5.55-5.55,5.55,5.55,0,0,1,5.55,5.55"/><path d="M206.54,86.63H199.3l.6-.9a6.62,6.62,0,1,0-11,0l.6.9h-7.24a.54.54,0,1,0,0,1.07h8.84a.55.55,0,0,0,.52-.38.54.54,0,0,0-.22-.61,5.54,5.54,0,1,1,6,0,.54.54,0,0,0,.29,1h8.86a.54.54,0,1,0,0-1.07"/><path d="M206.54,91.31H182.22a.54.54,0,0,0-.54.54.54.54,0,0,0,.54.54h24.32a.54.54,0,0,0,.54-.54.54.54,0,0,0-.54-.54"/><path d="M141.54,187.16a13.92,13.92,0,0,0-2.24-1.86c-.4-.25-.82-.5-1.26-.73s-.9-.43-1.33-.6-.93-.33-1.37-.46h0l-.23-.05-.11,0-.18,0h-.06l-.1,0h0l-.36-.08h-.07l-.1,0-.18,0-.13,0-.23,0-.37,0H133l-.31,0-.24,0-.37,0h-.48a2.08,2.08,0,0,0-.25,0H131l-.28,0-.29,0h-.14l-.46.06-.28,0-.57.1-.15,0-.22,0-.13,0-.18,0a.23.23,0,0,0-.11,0l-.18.05-.23.06-.37.12-.25.09-.34.12-.42.18-.22.09-.12.06-.16.08-.33.17,0,0-.09,0h0l-.36.2,0,0-.39.25-.09.07-.06,0-.1.07-.2.15a11,11,0,0,0-1.13.94,11.57,11.57,0,0,0-1,1.1,10.59,10.59,0,0,0-.83,1.23s0,0,0,.07v0l0,0a4.48,4.48,0,0,0,3.74,6.94,3.61,3.61,0,0,0,.73-.07,4.4,4.4,0,0,0,2.91-1.8,4.46,4.46,0,0,0-3.17-7.05l-1.16-.13,1-.67.08,0,.34-.21.06,0,.3-.16a.29.29,0,0,1,.12-.07l0,0,.31-.15.14-.08.11,0a1.21,1.21,0,0,1,.2-.09l.38-.16.06,0,.25-.09a1.84,1.84,0,0,1,.25-.09l.31-.1.2-.05.12,0,.05,0,.11,0h0l.16,0,.11,0,.21,0h0l.16,0,.49-.09.26,0,.4-.05h.16l.24,0h1.62l.2,0h.12l.17,0h.17l.33,0,.22,0,.12,0,.16,0,.12,0h.05l.31.06.14,0h0l.17,0,.09,0,.24.06c.41.12.84.26,1.26.42s.8.35,1.23.56a11,11,0,0,1,1.16.68,12.1,12.1,0,0,1,2.06,1.7.54.54,0,0,0,.77,0,.53.53,0,0,0,0-.77m-17.22.7a3.66,3.66,0,0,1,.57-.05,3.36,3.36,0,0,1,3.32,2.83,3.37,3.37,0,0,1-2.78,3.89,3.35,3.35,0,0,1-3.89-2.78,3.39,3.39,0,0,1,2.78-3.89"/><path d="M141.64,193.08a4.48,4.48,0,0,0-1.81-2.91,4.42,4.42,0,0,0-2.59-.84,3.88,3.88,0,0,0-.75.07,4.46,4.46,0,0,0-3.68,5.14,4.5,4.5,0,0,0,1.82,2.91,4.41,4.41,0,0,0,2.13.81l1.15.12-1,.66a.16.16,0,0,1-.08.06l-.33.21-.06,0-.3.17-.12.06,0,0-.31.16-.14.07-.11,0-.19.09h0l-.37.15-.07,0-.25.09-.24.09-.32.1-.19,0-.12,0-.06,0-.1,0h0l-.15,0-.12,0-.21,0h0l-.16,0-.5.08-.25,0-.4.05-.16,0h-.85a1.62,1.62,0,0,1-.22,0h-.79l-.21,0h-.28l-.13,0H129l-.33,0-.21,0-.12,0-.16,0-.13,0h0l-.32-.07-.13,0h0l-.17,0-.1,0a1.55,1.55,0,0,0-.23-.06c-.42-.12-.84-.26-1.27-.43s-.8-.34-1.23-.55-.79-.44-1.16-.69a12.45,12.45,0,0,1-2.06-1.69.52.52,0,0,0-.39-.17.55.55,0,0,0-.38.16.53.53,0,0,0-.17.37.58.58,0,0,0,.16.4,13.94,13.94,0,0,0,2.25,1.85c.4.26.82.51,1.26.74a12.5,12.5,0,0,0,1.32.59c.46.18.93.34,1.38.47h0l.24.06.1,0,.18,0,.07,0,.1,0h0l.36.07.08,0H128l.19,0,.12,0,.23,0,.37,0H129l.11,0h.31l.24,0,.37,0h1.09l.29,0,.28,0h.14l.47-.05.28,0,.57-.1.14,0,.23-.05.13,0,.18,0,.11,0,.18-.06a1,1,0,0,0,.23-.06l.36-.12a1.44,1.44,0,0,0,.25-.08l.34-.12.43-.18.22-.1.12-.06.16-.07.33-.17.05,0,.09-.06.37-.21,0,0,.4-.25.08-.06.07,0,.09-.07.2-.14a11.15,11.15,0,0,0,1.13-.95,9.36,9.36,0,0,0,1-1.09,11.51,11.51,0,0,0,.83-1.23.13.13,0,0,0,0-.08l0,0,0,0a4.53,4.53,0,0,0,.68-3.2M140,195.77a3.38,3.38,0,0,1-2.2,1.38,3.6,3.6,0,0,1-.56,0,3.38,3.38,0,0,1-.55-6.72,5.09,5.09,0,0,1,.56,0,3.3,3.3,0,0,1,2,.63,3.37,3.37,0,0,1,1.37,2.2,3.33,3.33,0,0,1-.58,2.51"/><path d="M177,179.54a.51.51,0,0,0-.17,0,.56.56,0,0,0-.52.37,3.45,3.45,0,0,1-2.27,1.83,2.23,2.23,0,0,1-2.19-.6c-1.44-1.4.07-5.29,1.55-9a44.51,44.51,0,0,0,2.21-6.64c.52-2.47.27-4.27-.76-5.5a4.37,4.37,0,0,0-2.2-1.38,4,4,0,0,0-2.44.1c-1.39.55-2.44,2.13-3,4.57a23.75,23.75,0,0,0-.51,6.14l0,.75-.66-.34a3.63,3.63,0,0,0-1.68-.41A3.67,3.67,0,1,0,168,173a3.59,3.59,0,0,0-.09-.81v-.29a26.19,26.19,0,0,1,.32-8.51c.49-2,1.33-3.35,2.35-3.75a2.54,2.54,0,0,1,.94-.16,3.29,3.29,0,0,1,2.47,1.12c.83,1,1,2.6.45,4.9a44.91,44.91,0,0,1-2.09,6.13,40.91,40.91,0,0,0-2,5.83,7.53,7.53,0,0,0-.2,2.45,3.07,3.07,0,0,0,.89,2,3.3,3.3,0,0,0,2.34,1,3.2,3.2,0,0,0,.85-.11,4.64,4.64,0,0,0,1.92-1,3.75,3.75,0,0,0,1.13-1.54.55.55,0,0,0-.34-.7m-12.64-3.94a2.58,2.58,0,1,1,2.58-2.57,2.57,2.57,0,0,1-2.58,2.57"/><path d="M99,30.54a3.32,3.32,0,0,0-2.71-2.4,5.15,5.15,0,0,0-4.21,1.09l-.21.15-.73.51,0-.9c.09-1.47.19-3.7.19-6a40.39,40.39,0,0,0-.36-5.88c-.31-2.05-.83-3.26-1.61-3.73a4.2,4.2,0,0,0-3-.55,6,6,0,0,0-2.44,1.06,10.57,10.57,0,0,0-1.14.93l-.66.63-.07-.91a3.91,3.91,0,0,0-.34-1.7,2.47,2.47,0,0,0-2.54-1.19,4.33,4.33,0,0,0-1.39.45.57.57,0,0,0-.21.74.53.53,0,0,0,.33.26.56.56,0,0,0,.42-.05h0a2.85,2.85,0,0,1,1-.31,1.41,1.41,0,0,1,1.45.62l0,.07,0,.06a16.71,16.71,0,0,1,.24,3.19c0,1.47,0,3.4,0,5.71-.06,4-.22,7.76-.22,7.79a.55.55,0,0,0,.52.57h0a.55.55,0,0,0,.55-.52c0-.42.16-4.21.21-8.1,0-1.9,0-3.55,0-4.87V17l.23-.12a.73.73,0,0,0,.16-.14,9.36,9.36,0,0,1,2-2,4.53,4.53,0,0,1,2.55-.93,3.19,3.19,0,0,1,1.67.48c.33.19,1.41,1.4,1.42,8.65,0,3.61-.26,7.1-.31,7.77V31l-.12.12c-.43.39-.83.79-1.19,1.15a18.85,18.85,0,0,1-1.55,1.43,7.74,7.74,0,0,1-2.42,1.27,2.87,2.87,0,0,1-.38.08.56.56,0,0,0-.47.6.58.58,0,0,0,.51.52.66.66,0,0,0,.28,0l0,0h0a8,8,0,0,0,3-1.52A18.3,18.3,0,0,0,89.45,33l.76-.75.33-.31.31.35a8.11,8.11,0,0,0,2.54,2.07,4.38,4.38,0,0,0,2.29.4,4.06,4.06,0,0,0,2.3-.95A3.51,3.51,0,0,0,99,30.54M97.27,33a3.1,3.1,0,0,1-2,.71,3.28,3.28,0,0,1-1.4-.31,7.26,7.26,0,0,1-2.24-1.85l-.27-.34.33-.27c.37-.3.71-.55,1-.78a5,5,0,0,1,2.69-1A2.83,2.83,0,0,1,98,30.78a2.4,2.4,0,0,1-.7,2.2"/><path d="M21.42,85.16h7l0,.42c.17,4,1.39,7.51,3.27,9.28a.55.55,0,0,0,.92-.42.6.6,0,0,0-.17-.38,9,9,0,0,1-2.11-3.71,18.77,18.77,0,0,1-.81-4.73l0-.46h3.11a.55.55,0,0,0,0-1.09H29.47l0-.46a18.77,18.77,0,0,1,.81-4.73,9,9,0,0,1,2.11-3.71.58.58,0,0,0,.17-.38.55.55,0,0,0-.92-.41c-1.88,1.76-3.1,5.23-3.27,9.27l0,.42H21.42l0-.42c-.17-4-1.39-7.51-3.26-9.27a.53.53,0,0,0-.39-.15.52.52,0,0,0-.39.17.56.56,0,0,0,0,.77,9,9,0,0,1,2.1,3.71,18.76,18.76,0,0,1,.82,4.73l0,.46h-3a.55.55,0,0,0,0,1.09h3l0,.46a18.76,18.76,0,0,1-.82,4.73,9,9,0,0,1-2.1,3.71.52.52,0,0,0-.17.38.5.5,0,0,0,.14.39.56.56,0,0,0,.4.17.59.59,0,0,0,.38-.14c1.87-1.77,3.09-5.24,3.26-9.28Z"/><path d="M58.66,42.36a.54.54,0,0,0-.08-.41.55.55,0,0,0-.76-.13l-4.23,2.92-4.23-2.92a.54.54,0,0,0-.62,0l-4.23,2.92-4.23-2.92a.53.53,0,0,0-.62,0L35.12,45a.54.54,0,0,0-.23.35.6.6,0,0,0,.09.41.56.56,0,0,0,.45.23.5.5,0,0,0,.31-.1L40,42.93l4.23,2.92a.54.54,0,0,0,.62,0l4.23-2.92,4.23,2.92a.54.54,0,0,0,.62,0l4.54-3.14a.49.49,0,0,0,.22-.35"/><path d="M35.74,51.67,40,48.75l4.23,2.92a.54.54,0,0,0,.62,0l4.23-2.92,4.23,2.92a.54.54,0,0,0,.62,0l4.54-3.14a.56.56,0,0,0,.23-.35.6.6,0,0,0-.09-.41.55.55,0,0,0-.76-.14l-4.23,2.93-4.23-2.93a.54.54,0,0,0-.62,0l-4.23,2.93-4.23-2.93a.58.58,0,0,0-.62,0l-4.54,3.14a.51.51,0,0,0-.22.35.53.53,0,0,0,.08.41.56.56,0,0,0,.45.24.57.57,0,0,0,.31-.1"/><path d="M177.44,57.32a.39.39,0,0,0,.15,0l3.75-1.07a.54.54,0,0,0,.35-.75l-1.57-3.57a.57.57,0,0,0-.3-.29.55.55,0,0,0-.42,0,.57.57,0,0,0-.29.3.55.55,0,0,0,0,.42l.87,2-.82-.16a3.32,3.32,0,0,1-1.76-1.05,4.22,4.22,0,0,1-1.23-3.22c.1-1.8.28-5.28.23-8.31a31.5,31.5,0,0,0-.27-4,6.18,6.18,0,0,0-.35-1.39,1.28,1.28,0,0,0-.87-.86c-.92-.19-2.1.2-3.61,1.19-.25.16-.51.34-.77.54l-.53.39-.15-.64-.06-.2c-.07-.28-.31-1.12-1-1.27-.92-.22-2.11.15-3.63,1.12-.33.22-.67.46-1,.72l-.49.37-.19-.58a1.62,1.62,0,0,0-.11-.25,2.47,2.47,0,0,0-2.54-1.2,4.44,4.44,0,0,0-1.4.45.55.55,0,0,0-.2.75.56.56,0,0,0,.33.25.53.53,0,0,0,.41,0,3.06,3.06,0,0,1,1-.31,1.38,1.38,0,0,1,1.44.63l0,0,0,.07a15.74,15.74,0,0,1,.24,3.19c0,1.47,0,3.4,0,5.72-.07,4-.22,7.75-.22,7.78a.54.54,0,0,0,.52.57h0a.54.54,0,0,0,.54-.52s.16-4,.22-8.1c0-2.39,0-4.36,0-5.83,0-.37,0-.72,0-1V38.9l.2-.14a.15.15,0,0,0,.06,0,17.81,17.81,0,0,1,1.77-1.33,5.27,5.27,0,0,1,2.43-1h.31l.11.29a11.56,11.56,0,0,1,.46,3.08c.1,1.52.13,3.5.09,5.87-.07,4-.31,7.93-.31,8a.55.55,0,0,0,.51.58h0a.55.55,0,0,0,.55-.51s.27-4.37.32-8.73c0-2.44,0-4.43-.15-5.92l0-.22.17-.15a17,17,0,0,1,1.61-1.2,5.28,5.28,0,0,1,2.44-1l.31,0,.12.29c.19.47.5,1.83.52,5.62,0,2.85-.14,6-.23,7.56a5.31,5.31,0,0,0,1.53,4.05,4.64,4.64,0,0,0,1.82,1.22l1.29.45-2.44.7a.54.54,0,0,0-.33.26.54.54,0,0,0,.48.81"/><path d="M67.53,87.72V87a14.3,14.3,0,0,0,2.18-1.83l2.37-2.37L73,82a16.2,16.2,0,0,1,6.48-3.59c2.45-.7,7-.79,9.27,1.49a13.73,13.73,0,0,1-.52-5.34,14.58,14.58,0,0,1,4.11-9.19c2.45-2.54,2.1-1.84,3.41-2.45a32.92,32.92,0,0,1,5.78-1.84,36.09,36.09,0,0,1,8-.7,32.94,32.94,0,0,1,13,3.15c3.85,1.93,1.23.79,1.84,1.4A13.52,13.52,0,0,1,128,70.84c.7,2.27,1.23,6,.27,8.92v.09A5.54,5.54,0,0,1,132,78a14.58,14.58,0,0,1,4.72.18,19.21,19.21,0,0,1,6,2.8,23,23,0,0,1,3.94,3.58,11.38,11.38,0,0,0,2.71,2.28c1,.7.27.35.18.52a1,1,0,0,1-1.14.35l-1.31-.35c-1.49.7-2.72,3-3.15,4.47l-.7,2.62a11.08,11.08,0,0,1-3.68,5.6l-1.31,1.14c-1.58,1.31-2.19,3.5-2.54,5.51a10.77,10.77,0,0,1-.35,1.93,1.28,1.28,0,0,1-1.14,1c-.52,0-1-.53-1.48-.79a25,25,0,0,1-4.82-3.67,10.57,10.57,0,0,1-2.53-3.85,25.61,25.61,0,0,0,1.75-15.49,17.83,17.83,0,0,1,1-5.34l-.61.61c-.09.09-.35-.17-.44-.26a9,9,0,0,0-2.36-2.45A10.2,10.2,0,0,0,122.13,77a12.5,12.5,0,0,0-6.48-.7,5.94,5.94,0,0,0,.88-6.3,7.64,7.64,0,0,0-2.45-3.33c-1.75-1.57-3.76-2.53-5.51-4.2a12.74,12.74,0,0,1-1.23,1l-3,2.1a11.35,11.35,0,0,0-3.07,3.07,4.7,4.7,0,0,0-1,2.45,6,6,0,0,0,1.32,5.25,11.15,11.15,0,0,0-9.81,2.8c-2.62,2.45-1.22,1.22-1.75,2s-.17.18-.26.18c-.26,0-.44-.53-.7-.62a21.29,21.29,0,0,1,1,5.52l-.35,3.58a23.22,23.22,0,0,0,.44,6.48,25.39,25.39,0,0,0,1.66,5.08,11.83,11.83,0,0,1-2.62,3.93,25.05,25.05,0,0,1-3.41,2.8l-2,1.32a1.88,1.88,0,0,1-.87.35c-1.66-.27-1-3.85-2.71-6.92s-1-1.31-1.67-1.83a18.69,18.69,0,0,1-2.53-2.28,9.38,9.38,0,0,1-2.19-4.38L73,91.92c-.35-1.4-1.75-3.85-3.06-4.46-.88.09-1.58.7-2.45.26Zm41-26c.52.44.87.79,1.31,1.14l3.24,2.28a10.54,10.54,0,0,1,3.23,3.32h2.28c1.84-.08,4.81-.35,4.64-2.8s-.26-.87-.7-1.14a29.48,29.48,0,0,0-4.12-1.75,32.55,32.55,0,0,0-11.63-1.57,22.47,22.47,0,0,0-7.09,1.22,17.92,17.92,0,0,0-5.51,2.37c-1.4,1-.53,1.83,0,2.45,1,1.14,2.8,1.14,4.28,1.22a15.05,15.05,0,0,0,2.1,0,14.24,14.24,0,0,1,4.64-4.2A16.43,16.43,0,0,0,108.57,61.73Zm8.13,13.92h2.54a12.67,12.67,0,0,0,3.07-.53c1.92-.61,2.45-2.53,2.53-4.37a10,10,0,0,0-1-5.25A2.66,2.66,0,0,1,122.66,68a5.51,5.51,0,0,1-2.45.79c-.88.08-1.67.17-2.46.17h-1A6.62,6.62,0,0,1,116.7,75.65Zm-16.36,0a6.86,6.86,0,0,1,0-6.74H97.63l-1.49-.17c-1.66-.44-3-1-3-3.07a10.37,10.37,0,0,0-.44,7.44c.79,2.19,1,1.58,1.84,1.93a5.1,5.1,0,0,0,2.18.43h2.37l1.13.09ZM87.65,82.56a9.49,9.49,0,0,1,1.66,2.1V84a28.6,28.6,0,0,0-.87-3c-.35-1-.26-.62-.53-.79-1.92-1.49-5.07-1.66-7.35-1.14-4.2.88-6.91,3.15-9.71,6.13s-1.4,1.31-2.27,1.92a3.89,3.89,0,0,0,2.18-.79l2-1.4,2.62-1.83c3.5-2.19,8.66-3.5,12.16-.53Zm56.27,2,2.27,1.67a4.76,4.76,0,0,0,2.37,1,14.07,14.07,0,0,1-1.67-1.4l-1.57-1.58a22.61,22.61,0,0,0-3.06-2.62,8.42,8.42,0,0,0-1.23-.79,13.33,13.33,0,0,0-8-2c-2.8.17-2.45.44-3.5,1s-.88.7-1,1.31a24.33,24.33,0,0,0-.79,3.59,7.41,7.41,0,0,1,6-3.94,9.19,9.19,0,0,1,4.55.7,5.93,5.93,0,0,1,2.19,1,27.87,27.87,0,0,1,3.23,2.1ZM87.65,90h1a10.87,10.87,0,0,0-2.36-4.81,7.32,7.32,0,0,0-4.29-2c-3-.35-5.6.79-8.14,2.28-.43.26-.78.44-1.13.7L71,87.2a9.08,9.08,0,0,1,3.06,4.9l5.07-1a58.56,58.56,0,0,1,8.58-1Zm50.84,1.14,4.73.87a9.58,9.58,0,0,1,3-4.81l-1-.61c-2.45-1.49-5-3.15-8-3.5s-4.55.35-6.21,1.83a8.21,8.21,0,0,0-2.45,5h2.19l2.8.35,2.88.44,2,.35ZM76.71,98.4c1.23,1.4,2.63,2,3.68,3.5l7.79-9.36.78-.79-.26-1.4h-2l-2.63.26L81.44,91,75.05,92l-1,.18.53,2.1a9.82,9.82,0,0,0,2.18,4.11Zm66.42-6.13-6.39-1L133,90.7c-1.31-.18-2.54-.26-3.76-.35h-.79l-.26,1.4,4.29,5,4.28,5.07c1.23-1.48,2.54-2.18,3.85-3.67a13.56,13.56,0,0,0,2.54-6ZM83,109a11.41,11.41,0,0,0,6.22-9.54,20.08,20.08,0,0,0,0-5.16l-.18-2.1-2.54,3.06c-1.92,2.28-3.85,4.55-5.86,6.83a8.42,8.42,0,0,1,1.4,3.15l.61,2.88a1.36,1.36,0,0,0,.53.88Zm51.63-1c.35-2,.7-4.29,1.93-6-.88-.88-1.58-1.75-2.36-2.63l-1.49-1.75-2-2.36-2.54-3L127.91,95a21.77,21.77,0,0,0,.52,6.74,11.26,11.26,0,0,0,2.71,4.9,6.78,6.78,0,0,0,3.15,2.18,1.35,1.35,0,0,0,.44-.87Z"/><path d="M112.07,49a6.26,6.26,0,0,1,3,2.45c.7,1.14.35.79.26,1.22a21.4,21.4,0,0,0-9.71-.87c-3.24.44-2.36.35-3.5.79s-.17,0-.26,0-.09-.18,0-.27c.44-1.66,1.92-2.53,3.32-3.23h7ZM110.4,50.1c.79,0,1.58.26,2.45.35-.52-.88-2.88-1.32-3.76-1.4a9.78,9.78,0,0,0-3.94.7c-1.22.52-.52.26-.7.61l2.72-.26c1.13-.09,2.18,0,3.32,0Zm3.94,1.66a2,2,0,0,0-1.14-1h-.7a20.61,20.61,0,0,0-5.25-.35l-3.15.35a1.75,1.75,0,0,0-1.31,1,16.54,16.54,0,0,1,2.89-.61l2.1-.18a24.41,24.41,0,0,1,6.56.7Z"/><path d="M77.5,129.2a8.7,8.7,0,0,1,6.13,1,9.45,9.45,0,0,1,3.67,4l1.31,2.54a27.46,27.46,0,0,0,3.33,4.9A17,17,0,0,0,99.82,147a29,29,0,0,0,6.65,1.31,15.69,15.69,0,0,0,3,0,21.84,21.84,0,0,0,5.34-.88,22.33,22.33,0,0,0,7.35-3.32c2.28-1.49,1.49-1.05,2.19-1.66a31.53,31.53,0,0,0,2.89-2.89l1.75-2a36.59,36.59,0,0,1,2.62-2.8,10.8,10.8,0,0,1,7.26-3c-.87-.79-.7-1.05-1.05-2.1a1.58,1.58,0,0,1-1.48,1.31c-.79,0-1.32-.78-1.58-1.4a9.24,9.24,0,0,1-.44-6.3,6.43,6.43,0,0,1,4.38-4.46c-2.28-1.66-4.81,1.22-5.6,3.32s-.88,6.74,1,9.28l-1.31.7a19.75,19.75,0,0,0-3.15,2.36l-1.23,1.05h-.26v-.26a11.56,11.56,0,0,0,2.54-6.65c.09-2.45-.09-2.54-.61-3.76a5.49,5.49,0,0,0-7.79-3c-3,1.67-1.75,1.49-1.84,2.72s.35,1.22.44,1.75-.62.7-1,.61c-2.89-.79-3-5.6-2.8-8l.26-3.85a5.79,5.79,0,0,0,2.62.88,6.21,6.21,0,0,0,5.08-2,4.33,4.33,0,0,0-.7-.62,9.21,9.21,0,0,1-2.27-2.88c-.62-1.14-.27-.35-.35-.62-.35-.87-.7-1.83-1-2.71L122,106a15.37,15.37,0,0,0,2.1-2.62,14,14,0,0,0,4.11,4.37l2.1,1.58a17.92,17.92,0,0,1,4.9,5.34l.61,1,1.05,1.83a4.7,4.7,0,0,1,2.63.79c.78.53.7,0,1,0,3.76,0,7.09,2.63,7.09,6.48s-.18,2.89-.62,4.2-1.22,2-2.18,1.4-.44-.53-.7-.88c-.18,1-.7,2.28-1.75,2.1s-1.14-1.05-1.32-1.83l-.26.7a1.88,1.88,0,0,1-1.05,1.13,8,8,0,0,1,6.65,4.82,13,13,0,0,1,.61,7.52,16.33,16.33,0,0,1-6,9c-3,2.27-1.49,1.05-2.37,1.48a19.45,19.45,0,0,1-5.77,2c-2,.35-4.38.35-6.65.52h-1l-4.73.09H114.6A5.47,5.47,0,0,1,113,159a2,2,0,0,1-3-.26,6.1,6.1,0,0,1-1.31-3l-.79-4.64-.43-2.37-3.24-.35-1.75-.26,1.4,1.75c1.57,2,3.06,6.48,1.14,8.75a2.41,2.41,0,0,1-2.19,1,11.19,11.19,0,0,1-5.43-2.28H93.34l-3.85-.09H87.65L85.46,157A18.21,18.21,0,0,1,70.59,147a16.87,16.87,0,0,1-1.4-5.52,15.34,15.34,0,0,1,1-6.73c.87-2.1.79-1.67,1.49-2.45A9,9,0,0,1,77.06,129Zm45.42-18.72a22.29,22.29,0,0,0,3-3.5l-1.83-2a9.73,9.73,0,0,1-2.45,2.54,3.9,3.9,0,0,0,.52,1.31c.26.44.44,1,.79,1.58Zm7,12.51.7,1a11.4,11.4,0,0,1,1.57-2.36l1.32-1.58a7.85,7.85,0,0,1,2.62-2.1,19.72,19.72,0,0,0-5.95-7.61l-2.8-2.1c-.35-.26-.7-.52-1.14-.87A21.78,21.78,0,0,1,123,111a14.2,14.2,0,0,0,2.45,2.71c.87.79.26.44.17.62a6.93,6.93,0,0,1-3.15,2.27,25.71,25.71,0,0,1,2.89,3.94,10.91,10.91,0,0,1,1.66.35l-.87-3.15a10.47,10.47,0,0,1,1.57,2.89c.44,1,1,.78,2.1,2.36Zm-10.07,1c.62-2.27,2.81-3.32,5.08-3.59a41.56,41.56,0,0,0-2.71-3.76,6.14,6.14,0,0,1-4.12-.35l-.17,2.45c-.18,1.84-.26,6.83,2.1,7.62a7.12,7.12,0,0,1-.18-2.37Zm24.16.7a12.84,12.84,0,0,0,2.71-.7,6.17,6.17,0,0,0-5.6-4.55c-2.63-.17-2,0-3,.53a5.69,5.69,0,0,0-3.15,4c2.63,1.14,6.3,1.14,9,.7Zm-11.29-3.06a9.63,9.63,0,0,0-1.84,2.8l.35,1.4A10.6,10.6,0,0,1,132.72,121.59Zm8.22,4.46a.79.79,0,0,1,.27-.7,2.89,2.89,0,0,1,.35.88l.26,3.24c0,.52.26,1.75.87,1.66s1-1.66,1.05-2.19l.35-3.41s.18-.26.27-.18l.17.18c.18,1.31.18,2.1.35,3.32s.18.88.61,1.14.53-.17.62-.35a10.66,10.66,0,0,0,.78-5.51,12,12,0,0,1-4.2,1.05,16.15,16.15,0,0,1-7.61-1,12.45,12.45,0,0,0,.44,4.72c.44,1.58.61,1.49,1.14,1.4s.78-1.14.87-1.66l.35-3.06s.09-.27.18-.27.17.18.17.18c.44,1.84.18,3.15.79,5.07s.35.62.61.62c1,0,1.14-2.1,1.23-2.89l.17-2.28ZM86.86,151a11.1,11.1,0,0,1-5.07,1.4c.09.18.26.18.44.27a5.86,5.86,0,0,0,3.67.35,14.77,14.77,0,0,0,3.76-1.32,12.53,12.53,0,0,0,3.24-2.45,2,2,0,0,1-2.1,0c-.7-.44-.79-.26-.87-.7l1.31.7a1.77,1.77,0,0,0,1.93-.44c1-.78,1.4-2.1,2.27-3.23a21.41,21.41,0,0,1-6.39-7c-1.75-2.89-1.31-2.37-2-3.59a9.54,9.54,0,0,0-3.94-4.38,7.22,7.22,0,0,0-4.55-.87,8.61,8.61,0,0,0-5.51,2.8,7.13,7.13,0,0,0-1.84,3.32c.7.53,1.4,1.05,2.1,1.49l3.5,2.45,5.78,4a34.28,34.28,0,0,0,3.76,2.36,3.76,3.76,0,0,0,1.84.61c-.79.79-5.52-2.45-6.22-3l-10.32-7.27-.53-.43a15.22,15.22,0,0,0-.61,5.25,4,4,0,0,0,1.23,3.06A13.68,13.68,0,0,0,76.19,148a11.91,11.91,0,0,0,6.21,1.22c4.55-.52,6.83-2.19,9.63-5.69a20,20,0,0,1-.62,2.19,9.43,9.43,0,0,1-4.55,5.17Zm35.27-2.8c2.45,1,4.9,2.89,7.18,3.42a10.39,10.39,0,0,0,4,.43,16.69,16.69,0,0,0,10.33-4.2c2.88-2.54,1.83-1.92,2.36-3.24a13.89,13.89,0,0,0,0-6.82l-1.66,1.14-5.87,3.85a29.47,29.47,0,0,1-3.5,2.1,16.76,16.76,0,0,1-5.68,1.92c-2,.26-2.72.18-3.59-.26a14.62,14.62,0,0,0,10.06-2.36c3.06-1.93,6.83-4.38,10.24-6.65a7.49,7.49,0,0,0-8.49-4.9,11.86,11.86,0,0,0-6.65,3.76l-1.57,1.84a41,41,0,0,1-3.77,4,16.62,16.62,0,0,1-3.32,2.63l-.7.35c-1.14.61-2.28,1.22-3.5,1.75a5.18,5.18,0,0,1,1.4.52l1,.53,1.66,1c.53.35,1,.61,1.49,1a16,16,0,0,0,6.39,2.8l-1.49-1.05c-.35-.26-.7-.44-1.05-.7l-4.2-2.28c-.52-.26-1.05-.43-1.57-.7l-1.58-.61a1.71,1.71,0,0,1-.7-.35A11,11,0,0,1,122,148Zm-24.85-1.57-1.49-.79c-2.27,3.24-3.32,7.18-4,11h1.76c.7-3.5,1.48-7.36,3.67-10.24Zm8.22,10a10.38,10.38,0,0,0-.78-4.28,12.83,12.83,0,0,0-2.45-3.51c-1-1.05-.62-.61-1.14-.7A26.18,26.18,0,0,1,97.72,147l-.79,1.22a6.11,6.11,0,0,0-1.23,4.38,6.93,6.93,0,0,0,2.54,4.29,10.41,10.41,0,0,0,5.16,2c1.93.17,1.93-1.14,2-2.36Zm14.27.18h1.75c-.53-3.15-2-7.35-4.38-9.45l-1.75.52a5.8,5.8,0,0,1,1,1,21.22,21.22,0,0,1,3.41,7.88Zm-4.38-2.28c.44-1.22,1-3.41.7-4.64s-.87-1.31-1.49-1.75a34.62,34.62,0,0,1-6,1l.52,2.27.7,4.38c.18,1,1,3.32,2.19,3.06,1.49-.26,2.89-2.89,3.32-4.29Z"/><path d="M88.88,124.48A14.79,14.79,0,0,0,87.74,131c-.18-.17-.44-.26-.61-.43a10.91,10.91,0,0,0-3.68-2.1c-1.31-.44-1.57.61-3.94.52a10.63,10.63,0,0,0-2.1,0,4.1,4.1,0,0,1-2.53-1.4,4.45,4.45,0,0,1-1.23-3.06,8.93,8.93,0,0,1-1.57-4.73c-.09-1.75-.09-4.29,0-6.39s.35-2,1.22-1.92.61.26,1,.61c0-.87,0-2.27.7-2.89s.7-.26,1.05-.08.44.43.7.78a3.43,3.43,0,0,1,.53-1.66,1.07,1.07,0,0,1,1.66,0,1.78,1.78,0,0,1,.53,1.23c.26-.27.43-.62.78-.7,1-.27,1.58,1.13,1.67,1.92l.52,3.41a6.52,6.52,0,0,1,1.75-2,29.05,29.05,0,0,1,2.36-2c1.93-1.4,5.78-4,6.57-6.3a16.61,16.61,0,0,0,3.32,3.67A12.38,12.38,0,0,1,95.18,111a10.76,10.76,0,0,1-2.8,3.24c2.1,2.1,4.9,2.8,7.61,1.22.44,5.69,1,12.26,4.2,17.07a15.89,15.89,0,0,0,8.84,6.74,15,15,0,0,0,9.19,0c3.24-1,2.89-1.32,4.37-2.19a17.31,17.31,0,0,1-4.2,4.9,20,20,0,0,1-9.89,4.46,20.23,20.23,0,0,1-8.31,0,14.91,14.91,0,0,1-6-2,19.32,19.32,0,0,1-5.42-4.73,15.12,15.12,0,0,1-3-12.16,22.11,22.11,0,0,1,2-7.09,15,15,0,0,0-2.71,4.38Zm5.34-14a12.52,12.52,0,0,0,1.13-3A16.27,16.27,0,0,1,93,105l-.53.7L91.24,107a18.9,18.9,0,0,0,3,3.5Zm-2,8c.35-.18.44,0,.7.26l1.75-2.28c-1-.35-3.24-1.57-3.24-2.62,0-.09.27-.35.35-.35A10.44,10.44,0,0,0,94,111a16.26,16.26,0,0,1-3.24-3.67l-1.14,1-3.15,2.36a17.12,17.12,0,0,0-1.4,1.14c1.23,0,2.1,0,2.45,1.31a27,27,0,0,1,.53,3.5l2.19,1.14,1.92,1Zm-15-2.63,2-.61-.17-2-.27-3.5a2.79,2.79,0,0,0-.35-1.23.43.43,0,0,0-.7-.17,2.2,2.2,0,0,0-.52,1.31v3.06l1.22-.44h.44l-1.75.62v2.88Zm3.59-.79h.87l-.44-2.8L81,110.83c0-.44-.17-1.75-.7-1.75-1-.09-.79,2.8-.7,3.41L81,112a2.61,2.61,0,0,1-1.4.62v2.53l1.23-.08Zm-4.38-2-.17-2c0-.53-.18-1.66-.88-1.58s-.61,1.49-.61,2V114l1.66-.88Zm6.3,4.9a4.85,4.85,0,0,0-3.24,4.64c-1-1.93.79-3.94,2.45-4.9l-.26-2c0-.18-.17-.27-.35-.27A12.64,12.64,0,0,0,73,119.23c.26-.79,1-1.14,1.49-1.75L74.09,115c-.26,0-.44.17-.7.17l.7-.35c0-.52,0-3-.79-2.89s-.61,1.23-.61,1.67v4.11a12.55,12.55,0,0,0,.35,3.59,7.45,7.45,0,0,0,2.1,3.32,6.29,6.29,0,0,0,4.29,1.4,6.08,6.08,0,0,0,5.25-3.67c.87-2.1.78-2.54.61-3.85L85,114.68c-.7-.35-1.23.61-1.4,1.13a6.76,6.76,0,0,0-.27,2.63l.27.61a2.21,2.21,0,0,1-.79-.79Zm-8.49,7.18C75.49,129,80,128.94,83,127.63a12.81,12.81,0,0,0,2.1-1.58,9.52,9.52,0,0,0,2.28-7.44,39.06,39.06,0,0,0-.7-5.68c-.35-1.84-.88-.53-1.23-.53a3.22,3.22,0,0,0-3.15,2.19l.27,1.92a5.34,5.34,0,0,1,.61-1.66,2.55,2.55,0,0,1,1.66-1.14c.7-.08.7.27.7.62l.35,3.23c.35,3.07-.44,6.39-3.06,8.23a7.11,7.11,0,0,1-8.58-.52Zm.53-7.88,1.92-1.14c-.08-.61-.17-1.22-.26-1.83v-.88c-.09,0-1.75.79-1.75.79v3.06Zm23.36,2.89,1.32.26-.35-4.11a6.5,6.5,0,0,1-3.85.35c-.53.7-1,1.31-1.58,2A21.69,21.69,0,0,0,98.15,120Zm-8.31,1.4,2.1-2.71L88.18,117a17.43,17.43,0,0,1-.09,4.73l1,1.4.88-1.4Zm20.21,20a7.27,7.27,0,0,1-.87-.61,19.13,19.13,0,0,1-6.91-8.84,51.13,51.13,0,0,1-2.72-11.38A35.71,35.71,0,0,1,92.9,119l-.7,1.58a19.62,19.62,0,0,0-.87,2.45,22.54,22.54,0,0,0-1.14,7.61c.09,2.54,1,6.48,3.76,8.4a18.33,18.33,0,0,0,10.24,3.15,14.6,14.6,0,0,0,5.86-.52Zm-21.87-17,.52-1.31-.87-1.23-.44,1.32.7,1.22Z"/><path d="M123,126.4c0-1.31-1.23-1.75-.27-2.53a3,3,0,0,1,2.72-.79c2.62.52,3.41,3.41,3.06,5.77a10.19,10.19,0,0,1-3.94,6.39,10,10,0,0,1-5.25,2.1c-1.93.35-.7,0-1,.09a14.44,14.44,0,0,1-6.65-1.14,15.34,15.34,0,0,1-8.23-9.8c-1.31-4.29-1-3.41-1.22-5.16-.53-3.07-.79-6.13-1.14-9.37-1.22,1.84-3.67,3.07-5.77,2.19a1.19,1.19,0,0,1-.62-.52,13.39,13.39,0,0,0,3-5.87c-.7-.52-.35-1.05-.18-1.75a15.49,15.49,0,0,1-3.93-4.63c-2-3.85-2.19-8.06-1.76-12.26s.27-1.92.09-2.88a31.45,31.45,0,0,0-.7-4.2,9.72,9.72,0,0,1,7.62-4.2h.7a10.79,10.79,0,0,1,4,.87,24.29,24.29,0,0,1,5,3,24.49,24.49,0,0,1,4.29-2.63,11.49,11.49,0,0,1,4.9-1.14,10,10,0,0,1,6.21,2c1.58,1.31,1.49,1.31,2,2.1a11.06,11.06,0,0,0-.35,1.57l-.43,2.71v1.75c.52,5.25.43,10.51-2.63,15a6.11,6.11,0,0,1-.7.79,11.75,11.75,0,0,1-2,2.1c-.79.61.35.7-.53,1.66a16.45,16.45,0,0,0,2.63,5.6c1.14,1.4.44.35.52.7-2.18,1.49-5.07.26-6.47-1.84l-.62,5a26.36,26.36,0,0,0-.17,5.25,9.93,9.93,0,0,0,1.66,5c1,1.4,3.42,2.54,5.34,1.14s1-1,1-1.84Zm.26-1.57a2.67,2.67,0,0,1,.26,2.54A3.13,3.13,0,0,1,122,129a3.73,3.73,0,0,1-2.36.52,5.76,5.76,0,0,1-4.46-3.41,11.68,11.68,0,0,1-1.14-4.9c-.26-5.25,1.66-11,1.66-16.71s-.26-3.68-.44-5.6a27.43,27.43,0,0,1,.18-8.49c.52-2.8.7-2.45,1.57-3.33a4.65,4.65,0,0,1,4.64-1.22c1.58.43,1.32.43,1.93.87a10.55,10.55,0,0,1-.7-1.49l-.88-2c-.52-1.22-.87-2.54-1.4-3.85l-.26-.61c-4.2-1.31-8.4.79-11.73,3.32s-.35.09-.52,0a23.55,23.55,0,0,0-4-2.45,10.74,10.74,0,0,0-7.7-.87l-1.31,3.85a34.41,34.41,0,0,1-1.75,4.2,7.92,7.92,0,0,1,2.8-1.14,4.92,4.92,0,0,1,4.2,1.75c1.31,1.93,1.49,4.11,1.58,6.39s0,1.93,0,3l-.44,4.9a41.9,41.9,0,0,0,0,7.43c.44,4.12.87,8.14,1.49,12.17a33.44,33.44,0,0,0,.87,4.11,15.5,15.5,0,0,0,5.43,8.58,11.65,11.65,0,0,0,7.35,2.53,12.32,12.32,0,0,0,8.49-3c2.27-2.1,2.36-3.24,2.53-5.25s-.35-3.85-2-4.64-1.84-.26-2.62.35-.18.44,0,.61ZM96.84,104.44l.88.79,1.66-3.07,1.4-2.53a4.64,4.64,0,0,1-.7,2.1l-2,4.55a2.45,2.45,0,0,0-.18.78l1.14.62a5.29,5.29,0,0,1,1.75,1.66,31.67,31.67,0,0,1-.44-6.39,4.78,4.78,0,0,1,.53-2.54,20.2,20.2,0,0,0,.7-4.46,20.89,20.89,0,0,0-.27-5.6c-.43-1.84-.43-1-.87-1.4a8.45,8.45,0,0,0-1.75-1,9.41,9.41,0,0,0-5.6-.26l1.49-4.12.61-1.66,1-2.71a9.45,9.45,0,0,0-4,2.89c-1.06,1.31-.18.43-.09.61a19.77,19.77,0,0,1,.52,5.6,17.34,17.34,0,0,0,1.58,1.14,1.5,1.5,0,0,0,1.31.26c2.54-.53,4.29.44,5.25,2.89l.53,1.31a3.29,3.29,0,0,0-2.1-.88,5,5,0,0,1-2.63-1c-.7-.61-.61-1.49-1.22-1.75a5.8,5.8,0,0,1-1.49-.79l-1.23-.87a35,35,0,0,0,.27,8.58,13.53,13.53,0,0,0,4,7.35Zm27.92-11.38V88.51a13.52,13.52,0,0,1-3.24,1.84,3.16,3.16,0,0,1-2.72,2.45l-1.22.17a2.16,2.16,0,0,0-1.58.79,6,6,0,0,1,2.63-3.85,2.76,2.76,0,0,1,2.63-.35c1.57.35,2.18-.44,3.41-1.22V87a45.63,45.63,0,0,1,.52-4.9,8.07,8.07,0,0,0-4.2-3,32.47,32.47,0,0,0,1.14,3.15c.44,1,.79,2,1.14,3.06l.79,2.28a9,9,0,0,0-6.92,1c-1.92,1.22-1.14.87-1.31,1.49a14.92,14.92,0,0,0-.35,6.21,20.67,20.67,0,0,0,.79,4.29,5.57,5.57,0,0,1,.43,2.27,28,28,0,0,1-.35,6.65,6.28,6.28,0,0,1,2.63-2.18c1-.44.26-.35.26-.62-.79-2-1.66-3.67-2.45-5.77s-.35-.79-.26-1.14c1.14,1.84,2.1,3.68,3.06,5.6a16.3,16.3,0,0,0,2.63-2.89,15.79,15.79,0,0,0,2.71-9.27Zm-3.24,20.39a10.9,10.9,0,0,1-1.49-2.19,20.61,20.61,0,0,1-1.31-3.23,5.59,5.59,0,0,0-1.58,1.31c-.44.52-.17.44,0,.7a6.18,6.18,0,0,0,4.47,3.41Zm-21.35-3.85A4.56,4.56,0,0,0,98.33,108,15.29,15.29,0,0,1,96,113.1l-.35.44a6.39,6.39,0,0,0,4.63-3.94Zm0,2.45c.26-.35.61-.61.7-1s-.18-.61-.35-1a6.48,6.48,0,0,1-3.42,3.41c-1.57.61-.43,0-.52.26A4.81,4.81,0,0,0,100.17,112.05Zm20.74,1.66a6.94,6.94,0,0,1-4.29-3.41c-.18.26-.44.61-.35.88a5.46,5.46,0,0,0,4.11,2.62c1.66.18.35,0,.44-.09Z"/><path d="M110.23,58.93a36.67,36.67,0,0,0-5.34.18,21.43,21.43,0,0,0-3.85.7,29,29,0,0,0-4.11,1.4c-1.31.61-.44.17-.53,0a2.09,2.09,0,0,1-.43-2,7.12,7.12,0,0,1,4.37-5,13.61,13.61,0,0,1,4.73-1.14,32.51,32.51,0,0,1,7.7,0,10.2,10.2,0,0,1,6.65,2.8c1.84,1.84,1.66,2.28,1.84,3.68s-.18,1.31-.62,1.66a28,28,0,0,0-10.32-2.36Zm5.07-3c.35,0,1.14.17,1.14-.18,0-.52-.87-1.22-1.57-1.48a19.36,19.36,0,0,0-2.19-.53A25.81,25.81,0,0,0,102,54.3c-3.23,1-1.31,1-1.4,1.4s.44.35.7.35l3.15-.53a11.64,11.64,0,0,1,1.75-.17h.88a25.78,25.78,0,0,1,8.22.61Zm1.14.35h-.87a26.36,26.36,0,0,0-3.59-.53l-2.45-.17h-1.84a29.25,29.25,0,0,0-6.21.79c-2.63.52-1,0-1.14-.27-.35-.43.26-1.05.53-1.4-.79.18-2.8,1.58-1.75,2.45s1,.53,1.48.44l2.37-.35a36.47,36.47,0,0,1,12.33.18c4.12.78,1.32.26,2,.17a1.06,1.06,0,0,0,1.05-.87c.08-.88-1.14-1.58-1.75-1.84l.35.61a.68.68,0,0,1-.44,1Z"/><path d="M110.58,78.36l-2.1,1.31-2.19-1.31c-1.84-1.14-3.32-2.1-4.2-4.2s.18-4.81,2.1-6.47c1.4-1.23,2.89-1.84,4.29-3.07a19.68,19.68,0,0,0,1.66,1.23,16.46,16.46,0,0,1,3.15,2.45,6.17,6.17,0,0,1,1.84,4.11c-.09,1.58-.09,1.23-.35,1.75-1,2.1-2.36,3.06-4.29,4.2Zm-2-3.32c1.92-2.19,3.5-4.29,3.15-7.27s-.18-.44-.35-.52l-2.8-1.93-.62.44-2.36,1.57a.65.65,0,0,0-.26.53,8.7,8.7,0,0,0,1,4.2,6.29,6.29,0,0,0,1.14,1.75l1,1.23Zm3.5-7.27c.35,2.8-1,5.08-2.89,7l-.61.7c-2.1-2-3.85-4.63-3.59-7.7a3.32,3.32,0,0,0-1.49,1.75,5.18,5.18,0,0,0,.44,3.24c1,2.1,2.71,3.33,4.46,4.73,2.28-1.75,4.55-3.42,5.08-6.48s-.27-2.19-1.49-3.24Z"/><path d="M135.43,148.72a11.76,11.76,0,0,1-4.9.78,6.7,6.7,0,0,1-3.06-.61,6.55,6.55,0,0,1-2.28-1.31,6.71,6.71,0,0,1-1.57-1.58l1.84.7.78.35a20.41,20.41,0,0,0,9.19,1.58Z"/><path d="M125.28,124.74c.61.26.7,1.58.7,2.1a6.29,6.29,0,0,1-2.8,4.81,7.51,7.51,0,0,1-4.11,1.23,9.32,9.32,0,0,1-5.95-2.28c-2.54-2.27-3.85-5.77-4.47-9a36.24,36.24,0,0,1-.7-6.74V110h-2.1L105.5,109H106a6.3,6.3,0,0,1,1.84,0v-.88h-1.75c-.18,0-.62.09-.79,0-.18-.35-.26-.7-.44-1h3v-1H104.8a2.69,2.69,0,0,1-.52-1.14h3.59a31.71,31.71,0,0,1,.52-4.2,35.45,35.45,0,0,1,.53,4.2h3.58L112,106.1h-3.15V107h3l-.35,1.13h-2.62V109h2.36a4.23,4.23,0,0,1-.35,1.14h-2v2.53a39.77,39.77,0,0,0,1.4,11.56c1.14,3.67,2.1,5,4.37,6.56a6.55,6.55,0,0,0,6.48.87,4.78,4.78,0,0,0,3.33-3,5.07,5.07,0,0,0,.61-3.24c-.09-1.14,0-.35,0-.52Z"/><path d="M111.28,84.4a4.26,4.26,0,0,0-.35,2.1l.26,1.57a2.42,2.42,0,0,1-.87,2.37,6.66,6.66,0,0,0-1.75,1.4,6.74,6.74,0,0,0-1.32-1,2.77,2.77,0,0,1-1.31-3l.26-1.22a2.67,2.67,0,0,0-.43-2.1A2.07,2.07,0,0,1,106.9,87c-.26,1-.43,1.93.53,2.72l1.14.87,1.05-.87c2.1-1.67-1.05-3.59,1.66-5.25Z"/><path d="M108.48,89c-.44-.53,0-1.32-1-1.67s-.09-.08-.18-.08,0-.27,0-.35a4.32,4.32,0,0,0,1.14-2.54,4.18,4.18,0,0,0,1,2.36c.7.61.17.35.17.53-1,.52-.61,1-1.22,1.83Z"/></svg>